<?xml version="1.0" encoding="UTF-8" ?>
<!DOCTYPE svg PUBLIC "-//W3C//DTD SVG 1.1//EN" "http://www.w3.org/Graphics/SVG/1.1/DTD/svg11.dtd">
<svg width="216pt" height="216pt" viewBox="0 0 216 216" version="1.1" xmlns="http://www.w3.org/2000/svg">
<g id="#52c57bff">
<path fill="#52c57b" opacity="1.00" d=" M 0.00 52.14 C 26.61 68.86 52.94 86.03 79.45 102.93 C 88.88 86.50 98.35 70.08 107.78 53.65 C 117.40 70.02 126.66 86.62 136.30 102.98 C 159.69 87.75 183.29 72.84 206.76 57.72 C 209.21 56.07 211.97 54.78 214.01 52.57 C 214.51 52.48 215.50 52.29 216.00 52.20 L 216.00 52.64 C 213.48 56.28 212.23 60.56 210.52 64.59 C 197.73 96.12 185.04 127.68 172.19 159.19 C 171.75 160.32 171.53 161.51 171.53 162.74 C 129.17 162.48 86.80 162.60 44.43 162.72 C 43.71 159.66 42.43 156.79 41.23 153.91 C 27.62 120.19 13.91 86.52 0.33 52.79 L 0.00 53.74 L 0.00 52.14 M 84.52 106.18 C 92.31 111.14 100.04 116.20 107.86 121.11 C 115.61 116.11 123.39 111.17 131.14 106.16 C 123.38 92.70 115.64 79.22 107.89 65.75 C 99.89 79.10 92.33 92.71 84.52 106.18 M 12.64 67.23 C 24.79 96.85 36.48 126.67 48.84 156.19 C 58.00 140.16 67.26 124.18 76.42 108.15 C 55.18 94.47 33.86 80.93 12.64 67.23 M 139.18 108.13 C 148.31 124.16 157.65 140.07 166.68 156.15 C 167.54 155.03 168.03 153.70 168.56 152.42 C 179.95 124.00 191.61 95.68 202.94 67.23 C 181.70 80.90 160.43 94.50 139.18 108.13 M 81.41 111.42 C 73.56 125.49 65.32 139.34 57.43 153.39 C 72.38 143.90 87.21 134.22 102.19 124.78 C 95.39 120.15 88.40 115.78 81.41 111.42 M 113.37 124.67 C 128.35 134.27 143.30 143.92 158.32 153.46 C 150.26 139.43 142.22 125.40 134.13 111.40 C 127.19 115.80 120.30 120.27 113.37 124.67 M 63.57 156.61 C 93.09 156.62 122.60 156.60 152.11 156.63 C 137.36 147.16 122.57 137.72 107.82 128.24 C 93.07 137.70 78.33 147.16 63.57 156.61 Z" />
</g>
</svg>
