<?xml version="1.0" encoding="UTF-8" ?>
<!DOCTYPE svg PUBLIC "-//W3C//DTD SVG 1.1//EN" "http://www.w3.org/Graphics/SVG/1.1/DTD/svg11.dtd">
<svg width="150pt" height="30pt" viewBox="0 0 150 30" version="1.1" xmlns="http://www.w3.org/2000/svg">
<g id="#49aa68d4">
<path fill="#49aa68" opacity="0.83" d=" M 0.00 0.00 L 0.50 0.00 C 7.29 4.85 14.53 9.02 21.46 13.66 C 24.03 9.21 26.61 4.76 29.15 0.29 C 31.77 4.73 34.37 9.19 36.93 13.66 C 43.66 9.00 51.05 5.25 57.36 0.00 L 57.83 0.00 C 55.08 10.36 50.00 19.94 46.34 30.00 L 12.12 30.00 C 7.92 20.38 4.48 10.44 0.01 0.94 L 0.00 1.21 L 0.00 0.00 M 3.56 4.29 C 6.90 12.14 9.89 20.14 13.30 27.97 C 15.65 23.69 18.10 19.47 20.57 15.27 C 14.96 11.52 9.21 7.98 3.56 4.29 M 37.80 15.19 C 40.26 19.48 42.70 23.77 45.22 28.02 C 48.38 20.07 51.55 12.13 54.88 4.25 C 49.19 7.89 43.52 11.58 37.80 15.19 M 22.98 14.58 C 25.04 15.92 27.10 17.24 29.16 18.59 C 31.22 17.27 33.28 15.96 35.36 14.66 C 33.34 11.04 31.27 7.45 29.20 3.87 C 27.13 7.44 25.09 11.03 22.98 14.58 M 22.13 16.18 C 20.00 19.81 17.87 23.44 15.81 27.12 C 19.72 24.66 23.61 22.17 27.47 19.61 C 25.69 18.47 23.91 17.32 22.13 16.18 M 30.88 19.65 C 34.77 22.12 38.61 24.68 42.56 27.06 C 40.49 23.39 38.34 19.77 36.24 16.12 C 34.46 17.31 32.67 18.49 30.88 19.65 M 17.87 27.95 C 25.45 28.24 33.04 28.08 40.63 28.09 C 36.85 25.57 33.02 23.14 29.16 20.74 C 25.40 23.14 21.62 25.54 17.87 27.95 Z" />
<path fill="#49aa68" opacity="0.83" d=" M 69.34 8.67 C 73.05 10.97 75.01 15.04 77.86 18.21 C 77.83 14.99 77.79 11.78 77.96 8.57 C 78.37 8.85 79.17 9.43 79.58 9.72 C 80.06 13.90 79.74 18.16 79.64 22.37 C 75.89 20.17 73.99 16.04 71.14 12.90 C 71.13 16.09 71.17 19.28 71.05 22.46 C 70.63 22.18 69.78 21.62 69.36 21.34 C 68.92 17.14 69.20 12.89 69.34 8.67 Z" />
<path fill="#49aa68" opacity="0.83" d=" M 86.21 8.86 C 86.71 9.09 87.71 9.55 88.21 9.78 C 90.22 13.78 91.71 18.05 93.16 22.28 C 91.15 22.04 90.31 20.29 89.47 18.71 C 87.85 18.72 86.23 18.74 84.61 18.78 C 83.86 20.37 82.98 22.00 81.11 22.51 C 82.34 17.80 84.43 13.38 86.21 8.86 M 84.98 16.98 C 86.35 16.98 87.73 16.99 89.10 17.00 C 88.47 15.25 87.84 13.50 87.19 11.76 C 86.47 13.50 85.75 15.25 84.98 16.98 Z" />
<path fill="#49aa68" opacity="0.83" d=" M 93.74 9.39 C 96.70 9.01 99.73 9.07 102.70 9.36 C 102.94 9.78 103.42 10.62 103.65 11.04 C 102.56 11.04 100.39 11.06 99.30 11.07 C 99.14 14.66 99.73 18.37 98.98 21.89 C 98.56 21.90 97.71 21.90 97.29 21.90 C 96.93 18.33 97.14 14.74 97.13 11.17 C 95.63 11.07 94.13 10.96 92.63 10.82 C 92.91 10.46 93.46 9.75 93.74 9.39 Z" />
<path fill="#49aa68" opacity="0.83" d=" M 108.33 9.42 C 112.82 7.63 117.77 12.21 116.57 16.83 C 116.05 21.38 110.01 23.63 106.55 20.74 C 102.53 17.93 103.54 10.78 108.33 9.42 M 106.81 18.07 C 107.75 20.23 110.33 19.87 112.25 20.18 C 114.82 17.91 115.62 12.99 112.06 11.27 C 107.98 9.46 104.67 14.69 106.81 18.07 Z" />
<path fill="#49aa68" opacity="0.83" d=" M 118.63 9.22 C 119.17 9.22 120.23 9.23 120.77 9.23 C 120.87 12.40 120.47 15.65 121.19 18.77 C 122.43 20.79 126.03 20.46 126.61 18.04 C 126.97 15.10 126.76 12.13 126.80 9.18 L 128.94 9.36 C 128.84 12.57 129.31 15.86 128.49 19.00 C 126.99 23.00 120.51 23.01 119.02 18.99 C 118.27 15.79 118.72 12.47 118.63 9.22 Z" />
<path fill="#49aa68" opacity="0.83" d=" M 144.40 9.45 C 146.28 8.40 148.24 9.73 150.00 10.38 L 150.00 11.27 C 147.70 11.19 145.29 11.01 143.33 12.46 C 145.51 13.89 147.84 15.08 150.00 16.55 L 150.00 19.50 C 147.91 22.87 143.10 22.70 141.15 19.30 C 143.17 19.32 148.93 21.46 147.75 17.58 C 146.11 16.44 144.19 15.74 142.61 14.50 C 141.31 12.77 142.51 10.16 144.40 9.45 Z" />
<path fill="#49aa68" opacity="0.83" d=" M 131.63 9.16 C 134.33 9.48 138.14 8.47 139.80 11.25 C 141.02 13.44 139.11 15.29 137.67 16.69 C 138.92 18.49 140.16 20.30 141.24 22.21 C 137.96 22.04 136.99 18.50 134.83 16.65 C 132.39 17.66 135.36 22.20 131.78 22.42 C 131.56 18.00 131.64 13.58 131.63 9.16 M 133.79 10.79 C 133.79 12.34 133.79 13.88 133.81 15.43 C 135.25 15.02 138.45 15.20 138.00 12.88 C 138.10 10.73 135.14 11.23 133.79 10.79 Z" />
</g>
</svg>
