<?xml version="1.0" encoding="UTF-8" ?>
<!DOCTYPE svg PUBLIC "-//W3C//DTD SVG 1.1//EN" "http://www.w3.org/Graphics/SVG/1.1/DTD/svg11.dtd">
<svg width="150pt" height="119pt" viewBox="0 0 150 119" version="1.1" xmlns="http://www.w3.org/2000/svg">
<g id="#4ec27afd">
<path fill="#4ec27a" opacity="1.00" d=" M 0.00 0.00 L 0.38 0.00 C 18.42 12.11 36.95 23.54 55.14 35.44 C 61.78 24.01 68.28 12.50 74.91 1.06 C 81.43 12.55 87.97 24.05 94.66 35.45 C 112.98 23.56 131.40 11.83 149.76 0.01 C 140.44 22.91 131.25 45.85 121.96 68.76 C 120.83 71.40 119.75 74.07 118.97 76.85 C 89.61 77.02 60.23 76.75 30.87 77.09 C 30.08 74.40 29.03 71.81 27.94 69.24 C 19.22 47.61 10.45 26.00 1.75 4.37 C 1.31 3.51 0.44 1.79 0.01 0.93 L 0.00 1.20 L 0.00 0.00 M 74.53 10.08 C 69.27 19.30 63.97 28.51 58.69 37.72 C 64.12 41.14 69.48 44.67 74.92 48.08 C 80.27 44.63 85.60 41.15 91.01 37.80 C 86.36 29.26 81.31 20.94 76.61 12.43 C 75.96 11.69 75.76 9.97 74.53 10.08 M 8.93 10.74 C 16.99 31.26 25.58 51.59 33.54 72.15 C 34.79 71.43 35.35 70.06 36.02 68.86 C 41.60 58.85 47.52 49.02 53.02 38.97 C 38.26 29.67 23.64 20.12 8.93 10.74 M 96.63 39.05 C 102.99 49.98 109.16 61.01 115.54 71.92 L 116.14 71.95 C 124.48 51.60 132.66 31.17 140.88 10.77 C 126.02 20.02 111.43 29.71 96.63 39.05 M 40.05 70.32 C 50.47 63.96 60.59 57.11 70.95 50.66 C 66.35 47.38 61.37 44.66 56.82 41.31 C 50.97 50.82 45.60 60.63 40.05 70.32 M 78.90 50.44 C 89.05 57.49 99.65 63.90 110.02 70.66 C 104.33 60.89 98.75 51.07 93.11 41.28 C 88.44 44.44 83.65 47.41 78.90 50.44 M 44.45 72.77 C 64.75 72.73 85.06 72.73 105.37 72.78 C 95.35 66.02 85.03 59.70 74.93 53.07 C 64.76 59.62 54.47 66.00 44.45 72.77 Z" />
<path fill="#4ec27a" opacity="1.00" d=" M 10.35 114.81 C 10.55 108.05 10.14 101.28 10.56 94.52 C 13.13 94.38 14.24 96.78 15.63 98.47 C 18.48 102.07 21.15 105.82 24.17 109.29 C 24.14 104.47 24.17 99.65 24.13 94.83 C 24.82 94.81 26.21 94.77 26.90 94.75 C 27.18 101.47 27.03 108.23 26.91 114.95 C 25.60 115.06 24.24 114.80 23.54 113.56 C 20.09 109.18 16.73 104.74 13.29 100.34 C 13.31 105.20 13.31 110.06 13.32 114.92 C 12.57 114.89 11.09 114.84 10.35 114.81 Z" />
<path fill="#4ec27a" opacity="1.00" d=" M 37.17 94.94 C 37.96 94.87 39.53 94.73 40.32 94.66 C 43.31 101.28 45.73 108.14 48.48 114.86 C 47.36 114.84 46.24 114.81 45.12 114.78 C 44.44 113.10 43.81 111.40 43.15 109.72 C 40.35 109.72 37.55 109.72 34.75 109.68 C 33.63 112.15 33.16 116.06 29.37 115.05 C 31.74 108.26 34.64 101.67 37.17 94.94 M 35.44 107.40 C 37.74 107.38 40.03 107.38 42.33 107.39 C 41.05 104.42 40.20 101.28 38.92 98.32 C 37.61 101.28 36.75 104.43 35.44 107.40 Z" />
<path fill="#4ec27a" opacity="1.00" d=" M 48.82 94.81 C 54.02 94.78 59.22 94.87 64.41 94.75 C 64.50 95.70 64.58 96.65 64.65 97.61 C 62.57 97.60 60.50 97.57 58.42 97.50 C 58.29 103.30 58.42 109.10 58.36 114.90 C 57.55 114.89 55.93 114.87 55.12 114.86 C 55.17 109.14 55.08 103.42 55.19 97.70 C 53.05 97.57 50.90 97.55 48.75 97.58 C 48.77 96.89 48.81 95.50 48.82 94.81 Z" />
<path fill="#4ec27a" opacity="1.00" d=" M 71.47 95.69 C 77.18 92.51 85.28 96.31 86.00 102.93 C 87.85 110.24 80.12 117.36 73.00 114.69 C 64.63 112.47 63.73 99.30 71.47 95.69 M 73.13 98.08 C 67.49 100.89 68.36 111.32 74.95 112.25 C 79.74 113.31 83.69 108.48 82.74 103.93 C 82.90 99.12 77.31 95.92 73.13 98.08 Z" />
<path fill="#4ec27a" opacity="1.00" d=" M 89.50 107.63 C 89.40 103.31 89.35 98.99 89.56 94.67 C 90.36 94.75 91.96 94.89 92.76 94.97 C 92.69 99.33 92.58 103.71 92.76 108.07 C 93.11 113.62 102.29 113.59 102.39 107.95 C 102.70 103.53 102.27 99.10 102.60 94.68 C 103.36 94.81 104.88 95.07 105.63 95.20 C 105.74 99.68 105.82 104.18 105.54 108.66 C 105.01 113.47 99.40 116.33 95.01 114.79 C 91.85 113.96 89.53 110.89 89.50 107.63 Z" />
<path fill="#4ec27a" opacity="1.00" d=" M 110.22 94.89 C 113.98 94.91 118.21 94.18 121.57 96.25 C 125.32 98.88 123.64 105.16 119.33 106.15 C 121.25 109.16 123.43 111.99 125.49 114.91 C 118.88 116.83 119.48 106.10 113.50 106.67 C 113.48 109.39 113.48 112.11 113.53 114.82 C 112.43 114.84 111.33 114.84 110.24 114.84 C 110.27 108.19 110.31 101.54 110.22 94.89 M 113.48 97.36 C 113.46 99.77 113.47 102.18 113.53 104.59 C 115.48 104.31 117.79 104.87 119.40 103.43 C 120.71 102.45 120.80 100.45 120.11 99.08 C 118.64 96.86 115.72 97.54 113.48 97.36 Z" />
<path fill="#4ec27a" opacity="1.00" d=" M 127.33 102.00 C 125.98 97.91 129.98 94.05 134.00 94.65 C 136.07 94.63 140.78 96.18 137.93 98.78 C 135.69 97.67 131.91 96.06 130.35 98.97 C 129.11 102.48 133.68 102.86 135.87 103.92 C 139.91 104.85 140.60 110.30 137.94 113.03 C 135.44 115.71 131.10 115.66 128.09 113.87 C 125.97 113.21 126.19 111.44 127.83 110.32 C 129.43 111.26 130.98 112.68 132.99 112.43 C 135.55 112.91 137.85 109.19 135.67 107.40 C 133.06 105.42 128.34 105.79 127.33 102.00 Z" />
</g>
</svg>
