<?xml version="1.0" encoding="UTF-8" ?>
<!DOCTYPE svg PUBLIC "-//W3C//DTD SVG 1.1//EN" "http://www.w3.org/Graphics/SVG/1.1/DTD/svg11.dtd">
<svg width="195pt" height="100pt" viewBox="0 0 195 100" version="1.1" xmlns="http://www.w3.org/2000/svg">
<g id="#ffffffff">
<path fill="#ffffff" opacity="1.00" d=" M 0.68 0.33 C 24.40 15.72 48.24 30.95 72.03 46.24 C 80.42 31.43 89.00 16.73 97.38 1.91 C 106.20 16.51 114.43 31.47 122.97 46.24 C 146.76 30.97 170.56 15.71 194.30 0.37 C 181.19 33.65 167.26 66.63 154.39 100.00 L 40.54 100.00 C 38.94 94.42 36.39 89.19 34.29 83.79 C 23.14 55.95 11.76 28.20 0.68 0.33 M 97.30 12.85 C 90.43 24.97 83.56 37.10 76.48 49.10 C 83.34 53.48 90.13 57.98 97.03 62.28 L 97.95 62.29 C 104.86 57.98 111.66 53.49 118.52 49.10 C 111.22 37.15 104.88 24.61 97.30 12.85 M 12.18 14.16 C 21.47 38.23 31.48 62.03 41.01 86.01 C 42.15 88.75 43.00 91.64 44.63 94.15 C 52.74 79.66 61.07 65.30 69.38 50.92 C 50.27 38.73 31.21 26.47 12.18 14.16 M 125.67 50.91 C 133.90 65.35 142.29 79.69 150.41 94.20 C 152.38 90.68 153.60 86.82 155.14 83.11 C 164.34 60.12 173.88 37.25 182.83 14.17 C 163.80 26.46 144.74 38.70 125.67 50.91 M 51.95 91.86 C 65.31 83.30 78.69 74.77 91.98 66.11 L 91.71 65.42 C 85.91 61.39 79.79 57.82 73.95 53.84 C 66.46 66.42 59.45 79.29 51.95 91.86 M 103.19 65.40 C 103.23 65.66 103.32 66.18 103.36 66.43 C 116.56 74.86 129.75 83.31 142.89 91.83 C 135.66 79.14 128.45 66.43 121.05 53.84 C 115.17 57.80 109.10 61.48 103.19 65.40 M 57.94 94.48 C 82.63 94.77 107.33 94.49 132.02 94.62 C 133.72 94.66 135.42 94.55 137.10 94.29 C 123.89 86.26 111.06 77.61 97.99 69.36 L 96.99 69.37 C 83.97 77.73 70.94 86.09 57.94 94.48 Z" />
</g>
</svg>
