<?xml version="1.0" encoding="UTF-8" ?>
<!DOCTYPE svg PUBLIC "-//W3C//DTD SVG 1.1//EN" "http://www.w3.org/Graphics/SVG/1.1/DTD/svg11.dtd">
<svg width="300pt" height="238pt" viewBox="0 0 300 238" version="1.1" xmlns="http://www.w3.org/2000/svg">
<g id="#51c47bff">
<path fill="#51c47b" opacity="1.00" d=" M 0.00 0.00 L 0.44 0.00 C 3.14 2.24 6.21 3.93 9.13 5.84 C 42.83 27.56 76.61 49.14 110.28 70.90 C 123.52 48.05 136.57 25.08 149.78 2.21 C 162.84 25.12 176.02 47.97 189.13 70.86 C 223.25 49.10 257.25 27.13 291.33 5.30 C 293.82 3.79 296.32 2.20 298.28 0.00 L 300.00 0.00 L 300.00 0.66 C 297.73 3.11 296.94 6.44 295.67 9.43 C 276.74 56.22 257.89 103.03 238.94 149.80 C 238.30 151.15 238.18 152.63 238.54 154.07 C 236.36 153.91 234.18 153.80 232.00 153.81 C 175.04 153.92 118.07 153.76 61.11 153.94 C 61.20 153.49 61.39 152.58 61.48 152.13 C 42.63 105.73 23.97 59.26 5.16 12.85 C 3.52 8.84 2.11 4.72 0.01 0.91 L 0.00 1.18 L 0.00 0.00 M 117.34 75.33 C 128.09 82.35 138.95 89.22 149.73 96.20 C 160.52 89.21 171.47 82.46 182.11 75.24 C 171.27 56.54 160.50 37.79 149.83 18.99 C 138.83 37.67 128.31 56.63 117.34 75.33 M 17.63 21.24 C 34.31 62.56 50.88 103.94 67.77 145.19 C 80.47 122.77 93.43 100.50 106.16 78.10 C 76.64 59.16 47.09 40.26 17.63 21.24 M 193.31 78.11 C 206.16 100.48 218.85 122.95 231.91 145.20 C 248.45 103.84 265.38 62.63 281.84 21.24 C 252.34 40.21 222.83 59.16 193.31 78.11 M 113.17 82.65 C 102.07 102.14 90.89 121.59 79.70 141.02 C 100.62 127.93 121.29 114.43 142.06 101.11 C 132.35 95.07 122.83 88.74 113.17 82.65 M 157.47 101.13 C 178.23 114.47 198.92 127.91 219.77 141.09 C 208.65 121.56 197.50 102.04 186.20 82.62 C 176.69 88.89 167.06 94.98 157.47 101.13 M 88.56 145.37 C 95.36 145.84 102.19 145.43 109.00 145.57 C 143.02 145.52 177.03 145.69 211.04 145.51 C 190.69 132.33 170.19 119.36 149.88 106.11 C 129.36 119.07 109.07 132.40 88.56 145.37 Z" />
<path fill="#51c47b" opacity="1.00" d=" M 259.39 191.36 C 265.19 187.79 272.91 189.11 278.11 193.18 C 277.58 194.98 276.80 196.75 275.16 197.80 C 272.45 196.03 269.40 194.21 266.01 194.68 C 263.17 194.71 260.08 196.93 260.29 200.01 C 259.94 203.35 263.49 204.92 266.11 205.76 C 270.47 207.39 276.03 208.45 278.17 213.13 C 280.10 218.46 278.39 225.32 273.24 228.19 C 266.64 232.17 257.91 230.05 252.48 225.03 C 253.33 223.71 254.19 222.39 255.03 221.05 C 258.06 221.36 260.07 224.16 263.06 224.62 C 265.78 225.00 269.06 225.10 271.15 222.99 C 273.59 220.77 273.71 215.93 270.64 214.20 C 266.35 211.62 260.78 211.58 257.02 208.03 C 252.39 203.38 253.74 194.61 259.39 191.36 Z" />
<path fill="#51c47b" opacity="1.00" d=" M 20.82 189.64 C 22.86 189.82 25.55 189.04 26.76 191.24 C 33.99 200.46 41.12 209.77 48.37 218.99 C 48.19 209.22 48.32 199.45 48.29 189.67 C 50.15 189.68 52.01 189.68 53.87 189.69 C 53.87 203.07 53.87 216.45 53.89 229.83 C 51.79 229.69 49.10 230.31 47.89 228.06 C 40.73 218.92 33.62 209.73 26.51 200.55 C 26.55 210.31 26.59 220.07 26.50 229.83 C 24.61 229.80 22.71 229.79 20.82 229.77 C 20.80 216.39 20.80 203.01 20.82 189.64 Z" />
<path fill="#51c47b" opacity="1.00" d=" M 74.62 189.64 C 76.76 189.68 78.91 189.70 81.06 189.71 C 86.37 203.04 91.68 216.38 96.91 229.76 C 94.79 229.68 92.58 230.07 90.53 229.44 C 88.53 226.42 87.80 222.75 86.38 219.44 C 80.66 219.48 74.94 219.45 69.22 219.47 C 67.78 222.69 67.00 226.21 65.21 229.27 C 63.23 230.28 60.79 229.58 58.64 229.77 C 64.00 216.41 69.13 202.95 74.62 189.64 M 77.87 196.12 C 75.70 202.36 73.26 208.51 71.02 214.73 C 75.57 214.74 80.12 214.74 84.66 214.71 C 82.30 208.55 79.79 202.43 77.87 196.12 Z" />
<path fill="#51c47b" opacity="1.00" d=" M 97.66 189.70 C 108.16 189.69 118.66 189.69 129.16 189.70 C 129.16 191.54 129.16 193.38 129.16 195.23 C 125.01 195.23 120.85 195.26 116.70 195.18 C 116.65 206.70 116.67 218.23 116.69 229.76 C 114.54 229.76 112.38 229.76 110.23 229.77 C 110.31 218.30 110.16 206.82 110.30 195.34 C 106.10 195.15 101.90 195.25 97.70 195.23 C 97.68 193.39 97.67 191.54 97.66 189.70 Z" />
<path fill="#51c47b" opacity="1.00" d=" M 146.17 190.12 C 152.83 188.22 160.58 189.45 165.77 194.22 C 174.01 201.69 174.49 215.89 167.04 224.06 C 160.92 230.73 150.09 232.17 142.28 227.74 C 135.59 224.23 131.84 216.45 132.33 209.04 C 132.18 200.59 137.96 192.38 146.17 190.12 M 147.45 195.71 C 138.59 198.82 137.04 210.68 140.81 218.20 C 145.11 226.57 158.92 226.78 163.52 218.60 C 166.31 213.41 166.28 206.77 163.78 201.48 C 160.90 195.60 153.33 193.62 147.45 195.71 Z" />
<path fill="#51c47b" opacity="1.00" d=" M 178.80 189.74 C 180.99 189.70 183.18 189.68 185.38 189.67 C 185.44 198.14 185.28 206.61 185.45 215.09 C 185.49 220.13 189.81 224.80 195.01 224.55 C 199.94 224.96 204.52 220.88 204.77 215.96 C 205.03 207.22 204.79 198.47 204.88 189.72 C 207.06 189.70 209.25 189.69 211.44 189.69 C 211.45 197.45 211.45 205.22 211.45 212.98 C 211.50 217.38 210.36 221.98 207.32 225.29 C 200.93 232.19 188.30 231.98 182.40 224.54 C 179.49 221.08 178.84 216.36 178.79 211.99 C 178.80 204.57 178.80 197.15 178.80 189.74 Z" />
<path fill="#51c47b" opacity="1.00" d=" M 220.50 229.77 C 220.47 216.41 220.48 203.05 220.49 189.69 C 227.50 190.01 234.94 188.66 241.57 191.55 C 247.77 194.21 248.98 203.04 244.97 208.04 C 243.30 210.28 240.71 211.49 238.25 212.63 C 243.03 217.87 246.54 224.12 250.89 229.71 C 248.43 229.62 245.84 230.12 243.46 229.40 C 239.35 224.38 236.29 218.57 232.06 213.64 C 230.32 213.66 228.60 213.67 226.87 213.67 C 226.89 219.03 226.85 224.39 226.90 229.75 C 224.76 229.75 222.63 229.76 220.50 229.77 M 226.88 194.79 C 226.86 199.47 226.89 204.14 226.86 208.81 C 230.62 208.61 234.95 209.68 238.21 207.28 C 241.16 205.30 241.64 200.93 240.06 197.96 C 237.11 193.77 231.29 194.97 226.88 194.79 Z" />
</g>
</svg>
