<?xml version="1.0" encoding="UTF-8" ?>
<!DOCTYPE svg PUBLIC "-//W3C//DTD SVG 1.1//EN" "http://www.w3.org/Graphics/SVG/1.1/DTD/svg11.dtd">
<svg width="300pt" height="60pt" viewBox="0 0 300 60" version="1.1" xmlns="http://www.w3.org/2000/svg">
<g id="#54c378fb">
<path fill="#54c378" opacity="1.00" d=" M 0.00 0.00 L 0.42 0.00 C 14.38 9.49 28.85 18.28 43.00 27.51 C 48.14 18.65 53.23 9.76 58.34 0.89 C 63.62 9.69 68.58 18.68 73.80 27.52 C 88.09 18.30 102.44 9.16 116.77 0.01 C 108.65 20.00 100.59 40.02 92.44 60.00 L 24.10 60.00 C 17.42 42.27 9.89 24.86 2.92 7.24 C 2.10 5.06 1.11 2.95 0.01 0.91 L 0.00 1.19 L 0.00 0.00 M 6.95 8.37 C 13.37 24.35 19.90 40.28 26.34 56.26 C 31.51 47.70 36.37 38.96 41.38 30.30 C 29.85 23.07 18.46 15.62 6.95 8.37 M 45.80 29.18 C 49.90 32.04 54.20 34.59 58.36 37.35 C 62.40 34.49 67.21 32.26 70.78 29.02 C 66.80 21.77 62.48 14.70 58.46 7.46 C 54.07 14.60 50.11 21.99 45.80 29.18 M 75.44 30.26 C 80.29 39.01 85.33 47.67 90.41 56.29 C 96.93 40.29 103.37 24.26 109.93 8.27 C 98.40 15.54 87.01 23.04 75.44 30.26 M 44.13 32.11 C 39.84 39.69 35.43 47.20 31.10 54.76 C 39.19 49.68 47.18 44.45 55.28 39.37 C 51.68 36.77 47.81 34.58 44.13 32.11 M 61.47 39.34 C 69.56 44.47 77.62 49.65 85.68 54.82 C 81.28 47.24 77.06 39.54 72.46 32.09 C 68.92 34.69 65.05 36.80 61.47 39.34 M 34.78 56.52 C 50.55 56.55 66.32 56.50 82.09 56.55 C 74.31 51.23 66.24 46.34 58.32 41.22 C 50.55 46.44 42.45 51.16 34.78 56.52 Z" />
<path fill="#54c378" opacity="1.00" d=" M 287.58 19.73 C 291.31 17.31 296.30 18.33 299.62 20.98 C 299.21 21.58 298.39 22.77 297.99 23.37 C 295.90 23.24 294.18 21.31 291.96 21.68 C 289.53 21.52 287.16 24.30 288.57 26.58 C 291.25 29.65 296.35 28.90 298.83 32.30 C 301.33 36.01 299.26 41.61 295.15 43.16 C 291.10 44.61 286.18 43.61 283.25 40.39 C 283.71 39.78 284.64 38.56 285.11 37.95 C 287.55 39.22 290.03 41.11 292.96 40.39 C 295.77 40.04 297.50 35.87 294.97 34.05 C 292.22 32.24 288.55 32.22 286.06 29.94 C 283.26 27.05 284.12 21.71 287.58 19.73 Z" />
<path fill="#54c378" opacity="1.00" d=" M 138.61 18.53 C 140.18 18.62 142.05 18.52 142.83 20.19 C 147.14 25.73 151.40 31.30 155.77 36.79 C 155.70 30.74 155.73 24.68 155.73 18.63 C 156.64 18.63 158.45 18.64 159.35 18.65 C 159.32 26.96 159.28 35.28 159.38 43.59 C 156.06 44.44 154.56 41.22 152.84 39.08 C 149.33 34.46 145.66 29.99 142.24 25.30 C 142.20 31.38 142.21 37.46 142.25 43.53 C 141.03 43.54 139.81 43.55 138.60 43.56 C 138.67 35.22 138.63 26.88 138.61 18.53 Z" />
<path fill="#54c378" opacity="1.00" d=" M 172.14 18.66 C 173.49 18.64 174.85 18.63 176.21 18.61 C 179.55 26.94 182.96 35.25 186.12 43.65 C 184.76 43.40 183.13 43.86 181.94 43.07 C 180.94 41.22 180.37 39.17 179.65 37.20 C 176.04 37.13 172.42 37.18 168.81 37.13 C 168.02 39.32 167.18 41.49 166.18 43.59 C 165.19 43.58 163.21 43.56 162.21 43.55 C 165.56 35.27 168.84 26.96 172.14 18.66 M 169.90 34.25 C 172.78 34.26 175.65 34.26 178.53 34.25 C 177.05 30.53 175.64 26.78 174.33 23.00 C 172.54 26.62 171.50 30.55 169.90 34.25 Z" />
<path fill="#54c378" opacity="1.00" d=" M 186.62 18.63 C 193.18 18.68 199.75 18.62 206.31 18.67 C 206.30 19.53 206.26 21.26 206.25 22.12 C 203.71 22.28 200.94 21.68 198.54 22.37 C 198.39 29.43 198.53 36.49 198.50 43.56 C 197.48 43.56 195.44 43.56 194.43 43.57 C 194.49 36.41 194.42 29.26 194.47 22.10 C 191.86 22.09 189.26 22.10 186.65 22.11 C 186.64 21.24 186.62 19.50 186.62 18.63 Z" />
<path fill="#54c378" opacity="1.00" d=" M 215.35 19.46 C 220.56 17.20 227.44 18.44 230.82 23.22 C 234.19 27.96 234.06 34.97 230.41 39.53 C 225.64 45.40 215.32 45.24 210.81 39.16 C 206.10 33.04 207.96 22.58 215.35 19.46 M 217.36 22.47 C 212.27 24.49 211.31 31.25 213.27 35.79 C 215.45 40.97 223.20 41.91 226.87 37.84 C 229.54 34.59 229.78 29.74 227.99 26.01 C 226.15 22.20 221.12 20.88 217.36 22.47 Z" />
<path fill="#54c378" opacity="1.00" d=" M 237.41 34.05 C 237.36 28.88 237.35 23.72 237.43 18.55 C 238.43 18.58 240.43 18.64 241.44 18.67 C 241.48 24.10 241.25 29.53 241.53 34.95 C 241.74 38.14 244.88 40.77 248.08 40.29 C 250.89 40.20 253.37 37.76 253.55 34.96 C 253.80 29.51 253.58 24.04 253.64 18.59 C 255.01 18.65 256.39 18.71 257.77 18.78 C 257.32 24.83 258.23 30.97 257.25 36.97 C 255.71 43.24 247.70 45.53 242.39 42.66 C 239.20 41.09 237.38 37.52 237.41 34.05 Z" />
<path fill="#54c378" opacity="1.00" d=" M 263.36 43.56 C 263.39 35.24 263.31 26.92 263.41 18.60 C 268.61 19.08 275.42 17.16 279.08 21.99 C 281.78 26.11 278.96 31.58 274.50 32.88 C 277.30 36.27 279.79 39.91 282.24 43.56 C 280.75 43.55 279.27 43.52 277.79 43.50 C 275.43 40.27 273.17 36.97 270.89 33.69 C 270.03 33.61 268.31 33.45 267.45 33.37 C 267.34 36.76 267.38 40.15 267.42 43.54 C 266.40 43.54 264.37 43.56 263.36 43.56 M 267.38 30.64 C 269.76 30.44 272.51 31.04 274.55 29.48 C 276.54 28.01 276.81 24.85 275.06 23.09 C 272.95 21.29 270.01 21.91 267.47 21.70 C 267.36 24.68 267.36 27.66 267.38 30.64 Z" />
</g>
</svg>
