<svg xmlns="http://www.w3.org/2000/svg" width="60" height="30" viewBox="0 0 60 30"><g transform="translate(0 0)"><g class="nc-icon-wrapper" fill="#50cd37"><path d="M15.12 8.82c-3.48 0-6.3 2.82-6.3 6.3s2.82 6.3 6.3 6.3 6.3-2.82 6.3-6.3-2.82-6.3-6.3-6.3z m0-6.3c-6.96 0-12.6 5.64-12.6 12.6s5.64 12.6 12.6 12.6 12.6-5.64 12.6-12.6-5.64-12.6-12.6-12.6z m0 22.68c-5.57 0-10.08-4.51-10.08-10.08s4.51-10.08 10.08-10.08 10.08 4.51 10.08 10.08-4.51 10.08-10.08 10.08z"/></g></g><g transform="translate(30 0)"><g class="nc-icon-wrapper" fill="#50cd37"><path d="M15.12 2.52c-6.96 0-12.6 5.64-12.6 12.6s5.64 12.6 12.6 12.6 12.6-5.64 12.6-12.6-5.64-12.6-12.6-12.6z m0 22.68c-5.57 0-10.08-4.51-10.08-10.08s4.51-10.08 10.08-10.08 10.08 4.51 10.08 10.08-4.51 10.08-10.08 10.08z"/></g></g></svg>